<svg width="38" height="41" viewBox="0 0 38 41" fill="none" xmlns="http://www.w3.org/2000/svg">
<path fill-rule="evenodd" clip-rule="evenodd" d="M36.6133 12.2471L35.3684 10.087C34.3153 8.25912 31.9814 7.62855 30.151 8.67735C29.2798 9.1906 28.2401 9.33622 27.2614 9.08209C26.2826 8.82795 25.4451 8.19495 24.9336 7.32266C24.6046 6.76821 24.4277 6.1367 24.421 5.49199C24.4507 4.45836 24.0608 3.45672 23.34 2.71525C22.6192 1.97379 21.629 1.55564 20.595 1.55606H18.087C17.0739 1.55606 16.1026 1.95974 15.388 2.6778C14.6733 3.39586 14.2743 4.3691 14.2792 5.38215C14.2491 7.47376 12.5449 9.15353 10.4531 9.15332C9.80838 9.14662 9.17687 8.9698 8.62243 8.64073C6.79208 7.59194 4.45818 8.2225 3.40503 10.0503L2.06865 12.2471C1.01678 14.0727 1.63876 16.4051 3.45995 17.4645C4.64376 18.148 5.37302 19.4111 5.37302 20.778C5.37302 22.145 4.64376 23.4081 3.45995 24.0915C1.64107 25.1438 1.01841 27.4706 2.06865 29.2906L3.33181 31.4691C3.82525 32.3595 4.65316 33.0165 5.63234 33.2948C6.61152 33.5731 7.66124 33.4497 8.5492 32.9519C9.42212 32.4426 10.4623 32.303 11.4386 32.5643C12.4149 32.8256 13.2464 33.466 13.7483 34.3433C14.0773 34.8977 14.2542 35.5292 14.2609 36.1739C14.2609 38.287 15.9739 40 18.087 40H20.595C22.7009 40 24.411 38.2982 24.421 36.1922C24.4162 35.176 24.8177 34.2 25.5363 33.4814C26.2549 32.7628 27.2309 32.3612 28.2471 32.3661C28.8903 32.3834 29.5192 32.5594 30.0778 32.8787C31.9034 33.9306 34.2358 33.3086 35.2952 31.4874L36.6133 29.2906C37.1235 28.4149 37.2635 27.3719 37.0024 26.3927C36.7412 25.4134 36.1005 24.5786 35.222 24.0732C34.3435 23.5678 33.7027 22.7331 33.4416 21.7538C33.1804 20.7745 33.3205 19.7315 33.8307 18.8558C34.1624 18.2766 34.6427 17.7963 35.222 17.4645C37.0322 16.4057 37.6528 14.0869 36.6133 12.2654V12.2471Z" stroke="#14A1FF" stroke-width="1.5" stroke-linecap="round" stroke-linejoin="round"/>
<path opacity="0.4" d="M19.3501 26.0503C22.2619 26.0503 24.6224 23.6898 24.6224 20.778C24.6224 17.8662 22.2619 15.5057 19.3501 15.5057C16.4383 15.5057 14.0778 17.8662 14.0778 20.778C14.0778 23.6898 16.4383 26.0503 19.3501 26.0503Z" stroke="white" stroke-width="1.5" stroke-linecap="round" stroke-linejoin="round"/>
</svg>
